<svg xmlns="http://www.w3.org/2000/svg" viewBox="0 0 75.81 74.95"><defs><style>.cls-1{fill:#fff;}</style></defs><g id="Layer_2" data-name="Layer 2"><g id="Simple_Outline"><path class="cls-1" d="M39.54,29.6H34.78V24.85a3,3,0,0,0-6,0V29.6H24a3,3,0,0,0,0,6h4.76v4.76a3,3,0,0,0,6,0V35.6h4.76a3,3,0,0,0,0-6Z"/><path class="cls-1" d="M72.54,55.9,61,44.34a31.79,31.79,0,1,0-15.45,16.1L56.76,71.68A11.16,11.16,0,1,0,72.54,55.9ZM68.3,67.44a5.17,5.17,0,0,1-7.3,0L46.51,52.94a25.79,25.79,0,1,1,7.12-7.47L68.3,60.14A5.17,5.17,0,0,1,68.3,67.44Z"/><path class="cls-1" d="M31.78,11.25A20.53,20.53,0,1,0,52.31,31.78,20.55,20.55,0,0,0,31.78,11.25Zm0,35.06A14.53,14.53,0,1,1,46.31,31.78,14.55,14.55,0,0,1,31.78,46.31Z"/></g></g></svg>