<svg xmlns="http://www.w3.org/2000/svg" viewBox="0 0 69.96 69.18"><defs><style>.cls-1{fill:#383838;}</style></defs><g id="Layer_2" data-name="Layer 2"><g id="Simple_Outline"><path class="cls-1" d="M66.83,50.94,56.59,40.7a29.38,29.38,0,1,0-14.8,15.42l9.93,9.93A10.68,10.68,0,1,0,66.83,50.94ZM62.59,61.81a4.7,4.7,0,0,1-6.63,0L42.8,48.64a23.43,23.43,0,1,1,6.46-6.78L62.59,55.18A4.69,4.69,0,0,1,62.59,61.81Z"/><path class="cls-1" d="M29.42,12.67A16.75,16.75,0,1,0,46.17,29.42,16.77,16.77,0,0,0,29.42,12.67Zm0,27.5A10.75,10.75,0,1,1,40.17,29.42,10.76,10.76,0,0,1,29.42,40.17Z"/></g></g></svg>